<?xml version="1.0" encoding="utf-8"?>
<!-- Generator: Adobe Illustrator 24.0.0, SVG Export Plug-In . SVG Version: 6.00 Build 0)  -->
<svg version="1.1" baseProfile="basic" id="Layer_1"
	 xmlns="http://www.w3.org/2000/svg" xmlns:xlink="http://www.w3.org/1999/xlink" x="0px" y="0px" viewBox="0 0 1200 295.5"
	 xml:space="preserve">
<style type="text/css">
	.st0{fill:#E6E6E6;stroke:#000000;stroke-miterlimit:10;}
	.st1{fill:#FFFFFF;}
	.st2{fill:#CA0000;}
	.st3{fill:#0071BC;}
	.st4{fill:#F15A24;}
	.st5{fill:#FF00FF;}
	.st6{font-family:'Ubuntu-Medium';}
	.st7{font-size:72px;}
	.st8{fill:#FFFFFF;stroke:#FF0000;stroke-miterlimit:10;}
	.st9{fill:none;stroke:#FF0000;stroke-width:2;stroke-miterlimit:10;}
	.st10{fill:#FF0000;}
	.st11{fill:none;stroke:#0071BC;stroke-width:2;stroke-miterlimit:10;}
	.st12{fill:none;stroke:#F15A24;stroke-width:2;stroke-miterlimit:10;}
	.st13{fill:none;stroke:#FF00FF;stroke-width:2;stroke-miterlimit:10;}
	.st14{fill:none;stroke:#000000;stroke-width:2;stroke-miterlimit:10;}
	.st15{fill:#E6E6E6;}
	.st16{font-family:'Ubuntu-MediumItalic';}
	.st17{font-size:24px;}
	.st18{font-size:36px;}
</style>
<path class="st0" d="M977,295H223c-39.5,0-71.5-32-71.5-71.5v0c0-39.5,32-71.5,71.5-71.5h754c39.5,0,71.5,32,71.5,71.5v0
	C1048.5,263,1016.5,295,977,295z"/>
<g>
	<circle class="st1" cx="235.4" cy="221" r="47"/>
	<path d="M235.4,175c25.4,0,46,20.6,46,46s-20.6,46-46,46s-46-20.6-46-46S210,175,235.4,175 M235.4,173c-26.5,0-48,21.5-48,48
		s21.5,48,48,48c26.5,0,48-21.5,48-48S261.9,173,235.4,173L235.4,173z"/>
</g>
<circle class="st2" cx="416.7" cy="221" r="48"/>
<circle class="st3" cx="599.7" cy="221" r="48"/>
<circle class="st4" cx="781.8" cy="221" r="48"/>
<circle class="st5" cx="963.8" cy="221" r="48"/>
<text transform="matrix(1 0 0 1 214.9051 243.9844)" class="st6 st7">0</text>
<text transform="matrix(1 0 0 1 396.2752 244.0077)" class="st8 st6 st7">1</text>
<text transform="matrix(1 0 0 1 581.3008 244.0077)" class="st1 st6 st7">2</text>
<text transform="matrix(1 0 0 1 762.3008 244.0077)" class="st1 st6 st7">3</text>
<text transform="matrix(1 0 0 1 941.3008 244.0076)" class="st1 st6 st7">4</text>
<g>
	<line class="st9" x1="297.6" y1="221" x2="368.5" y2="221"/>
	<g>
		<polygon class="st10" points="283.5,221 303.4,229.1 298.7,221 303.4,212.9 		"/>
	</g>
</g>
<g>
	<line class="st11" x1="480.6" y1="221" x2="551.5" y2="221"/>
	<g>
		<polygon class="st3" points="466.5,221 486.4,229.1 481.7,221 486.4,212.9 		"/>
	</g>
</g>
<g>
	<line class="st12" x1="662.6" y1="221" x2="733.5" y2="221"/>
	<g>
		<polygon class="st4" points="648.5,221 668.4,229.1 663.7,221 668.4,212.9 		"/>
	</g>
</g>
<g>
	<line class="st13" x1="844.6" y1="221" x2="915.5" y2="221"/>
	<g>
		<polygon class="st5" points="830.5,221 850.4,229.1 845.7,221 850.4,212.9 		"/>
	</g>
</g>
<g>
	<line class="st14" x1="964" y1="157.6" x2="964.2" y2="96.7"/>
	<g>
		<polygon points="963.9,171.7 972.1,151.8 964,156.5 955.9,151.8 		"/>
	</g>
</g>
<g>
	<path class="st15" d="M825.5,96.5c-9.8,0-17.8-8-17.8-17.8V55.4c0-9.8,8-17.8,17.8-17.8h277.5c9.8,0,17.8,8,17.8,17.8v23.3
		c0,9.8-8,17.8-17.8,17.8H825.5z"/>
	<path d="M1102.9,38.1c9.5,0,17.3,7.8,17.3,17.3v23.3c0,9.5-7.8,17.3-17.3,17.3H825.5c-9.5,0-17.3-7.8-17.3-17.3V55.4
		c0-9.5,7.8-17.3,17.3-17.3H1102.9 M1102.9,37H825.5c-10.1,0-18.4,8.2-18.4,18.4v23.3c0,10.1,8.2,18.4,18.4,18.4h277.5
		c10.1,0,18.4-8.2,18.4-18.4V55.4C1121.3,45.2,1113.1,37,1102.9,37L1102.9,37z"/>
</g>
<text transform="matrix(1 0 0 1 822.3883 143.1595)" class="st16 st17">Git branch</text>
<text transform="matrix(1 0 0 1 906.5132 78.5472)" class="st16 st18">master</text>
<text transform="matrix(1 0 0 1 968.6101 31.4642)" class="st16 st17">branch name</text>
</svg>
