<?xml version="1.0" encoding="utf-8"?>
<!-- Generator: Adobe Illustrator 24.0.0, SVG Export Plug-In . SVG Version: 6.00 Build 0)  -->
<svg version="1.1" baseProfile="basic" id="Layer_1"
	 xmlns="http://www.w3.org/2000/svg" xmlns:xlink="http://www.w3.org/1999/xlink" x="0px" y="0px" viewBox="0 0 1192.7 689"
	 xml:space="preserve">
<style type="text/css">
	.st0{fill:#E6E6E6;stroke:#000000;stroke-miterlimit:10;}
	.st1{fill:none;stroke:#000000;stroke-width:2;stroke-miterlimit:10;}
	.st2{font-family:'Ubuntu-MediumItalic';}
	.st3{font-size:36px;}
	.st4{fill:#FFFFFF;}
	.st5{fill:#CA0000;}
	.st6{fill:#0071BC;}
	.st7{fill:#F15A24;}
	.st8{font-family:'Ubuntu-Medium';}
	.st9{font-size:72px;}
	.st10{fill:none;stroke:#FF0000;stroke-miterlimit:10;}
	.st11{fill:none;stroke:#FF0000;stroke-width:2;stroke-miterlimit:10;}
	.st12{fill:#FF0000;}
	.st13{fill:none;stroke:#0071BC;stroke-width:2;stroke-miterlimit:10;}
	.st14{fill:none;stroke:#F15A24;stroke-width:2;stroke-miterlimit:10;}
	.st15{font-size:53.2699px;}
	.st16{font-size:24px;}
	.st17{fill:#CA0000;fill-opacity:0.5;stroke:#CA0000;stroke-width:1.6615;stroke-miterlimit:10;}
	.st18{fill:#0071BC;fill-opacity:0.5;stroke:#0071BC;stroke-width:1.1077;stroke-miterlimit:10.0002;}
	.st19{fill:#F15A24;fill-opacity:0.5;stroke:#F15A24;stroke-width:1.1077;stroke-miterlimit:10;}
	.st20{fill:none;stroke:#000000;stroke-width:1.1077;stroke-miterlimit:10;}
</style>
<path class="st0" d="M1100.6,469.9H192.1c-39.5,0-71.5-32-71.5-71.5l0,0c0-39.5,32-71.5,71.5-71.5h908.5c39.5,0,71.5,32,71.5,71.5
	l0,0C1172.1,437.9,1140.1,469.9,1100.6,469.9z"/>
<g>
	<line class="st1" x1="738.4" y1="332.5" x2="738.6" y2="204"/>
	<g>
		<polygon points="738.3,346.6 746.5,326.7 738.4,331.4 730.3,326.7 		"/>
	</g>
</g>
<text transform="matrix(1 0 0 1 680.9435 189.4634)" class="st2 st3">master</text>
<g>
	<circle class="st4" cx="191.5" cy="395.9" r="47"/>
	<path d="M191.5,349.9c25.4,0,46,20.6,46,46s-20.6,46-46,46s-46-20.6-46-46S166.1,349.9,191.5,349.9 M191.5,347.9
		c-26.5,0-48,21.5-48,48s21.5,48,48,48s48-21.5,48-48S218,347.9,191.5,347.9L191.5,347.9z"/>
</g>
<circle class="st5" cx="372.8" cy="395.9" r="48"/>
<ellipse class="st6" cx="555.8" cy="395.9" rx="48" ry="48"/>
<circle class="st7" cx="737.9" cy="395.9" r="48"/>
<text transform="matrix(1 0 0 1 171.0283 418.9006)" class="st8 st9">0</text>
<text transform="matrix(1 0 0 1 352.3984 418.924)" class="st4 st8 st9">1</text>
<text transform="matrix(1 0 0 1 352.3984 418.924)" class="st10 st8 st9">1</text>
<text transform="matrix(1 0 0 1 537.424 418.924)" class="st4 st8 st9">2</text>
<text transform="matrix(1 0 0 1 718.4241 418.924)" class="st4 st8 st9">3</text>
<g>
	<line class="st11" x1="253.7" y1="395.9" x2="324.6" y2="395.9"/>
	<g>
		<polygon class="st12" points="239.6,395.9 259.5,404 254.8,395.9 259.5,387.8 		"/>
	</g>
</g>
<g>
	<line class="st13" x1="436.7" y1="395.9" x2="507.6" y2="395.9"/>
	<g>
		<polygon class="st6" points="422.6,395.9 442.5,404 437.8,395.9 442.5,387.8 		"/>
	</g>
</g>
<g>
	<line class="st14" x1="618.7" y1="395.9" x2="689.6" y2="395.9"/>
	<g>
		<polygon class="st7" points="604.6,395.9 624.5,404 619.8,395.9 624.5,387.8 		"/>
	</g>
</g>
<text transform="matrix(1 0 0 1 680.9434 38.9998)" class="st2 st3">HEAD</text>
<g>
	<line class="st1" x1="738.8" y1="135.5" x2="739" y2="56.4"/>
	<g>
		<polygon points="738.7,149.6 746.9,129.7 738.8,134.4 730.7,129.7 		"/>
	</g>
</g>
<text transform="matrix(1 0 0 1 49.2305 82.1767)" class="st2 st15">git reset --hard HEAD~2</text>
<text transform="matrix(1 0 0 1 20.7393 645.252)" class="st2 st16">Index</text>
<text transform="matrix(1 0 0 1 15.7393 415.3895)" class="st2 st16">Repo</text>
<text transform="matrix(1 0 0 1 15.7393 529.5996)"><tspan x="0" y="0" class="st2 st16">Working</tspan><tspan x="0" y="28.8" class="st2 st16">directory</tspan></text>
<circle class="st17" cx="302.7" cy="644.3" r="26.6"/>
<ellipse class="st18" cx="489" cy="645.3" rx="26.6" ry="26.6"/>
<circle class="st19" cx="675.2" cy="645.2" r="26.6"/>
<circle class="st20" cx="861.4" cy="645.2" r="26.6"/>
<circle class="st17" cx="253.6" cy="538.1" r="26.6"/>
<ellipse class="st18" cx="439.8" cy="539" rx="26.6" ry="26.6"/>
<circle class="st19" cx="626" cy="539" r="26.6"/>
<circle class="st20" cx="812.5" cy="537.6" r="26.6"/>
</svg>
