<?xml version="1.0" encoding="utf-8"?>
<!-- Generator: Adobe Illustrator 24.0.0, SVG Export Plug-In . SVG Version: 6.00 Build 0)  -->
<svg version="1.1" baseProfile="basic" id="Layer_1"
	 xmlns="http://www.w3.org/2000/svg" xmlns:xlink="http://www.w3.org/1999/xlink" x="0px" y="0px" viewBox="0 0 1192.7 689"
	 xml:space="preserve">
<style type="text/css">
	.st0{fill:#E6E6E6;stroke:#000000;stroke-miterlimit:10;}
	.st1{fill:none;stroke:#000000;stroke-width:2;stroke-miterlimit:10;}
	.st2{font-family:'Ubuntu-MediumItalic';}
	.st3{font-size:36px;}
	.st4{fill:#FFFFFF;}
	.st5{fill:#CA0000;}
	.st6{fill:#0071BC;}
	.st7{fill:#F15A24;}
	.st8{fill:#FF00FF;}
	.st9{font-family:'Ubuntu-Medium';}
	.st10{font-size:72px;}
	.st11{fill:none;stroke:#FF0000;stroke-miterlimit:10;}
	.st12{fill:none;stroke:#FF0000;stroke-width:2;stroke-miterlimit:10;}
	.st13{fill:#FF0000;}
	.st14{fill:none;stroke:#0071BC;stroke-width:2;stroke-miterlimit:10;}
	.st15{fill:none;stroke:#F15A24;stroke-width:2;stroke-miterlimit:10;}
	.st16{fill:none;stroke:#FF00FF;stroke-width:2;stroke-miterlimit:10;}
	.st17{fill:#FF5C64;}
	.st18{fill:none;stroke:#FF5C64;stroke-width:2;stroke-miterlimit:10;}
	.st19{font-size:53.2699px;}
	.st20{font-size:24px;}
	.st21{fill:#CA0000;fill-opacity:0.5;stroke:#CA0000;stroke-width:1.6615;stroke-miterlimit:10;}
	.st22{fill:#0071BC;fill-opacity:0.5;stroke:#0071BC;stroke-width:1.1077;stroke-miterlimit:10.0002;}
	.st23{fill:#F15A24;fill-opacity:0.5;stroke:#F15A24;stroke-width:1.1077;stroke-miterlimit:10;}
	.st24{fill:#FF00FF;fill-opacity:0.5;stroke:#FF00FF;stroke-width:1.1077;stroke-miterlimit:10;}
	.st25{fill:#FF5C64;fill-opacity:0.5;stroke:#FF5C64;stroke-width:1.1077;stroke-miterlimit:10;}
</style>
<path class="st0" d="M1100.6,469.9H192.1c-39.5,0-71.5-32-71.5-71.5l0,0c0-39.5,32-71.5,71.5-71.5h908.5c39.5,0,71.5,32,71.5,71.5
	l0,0C1172.1,437.9,1140.1,469.9,1100.6,469.9z"/>
<g>
	<line class="st1" x1="1102.2" y1="332.5" x2="1102.4" y2="204"/>
	<g>
		<polygon points="1102.1,346.6 1110.3,326.7 1102.2,331.4 1094.1,326.7 		"/>
	</g>
</g>
<text transform="matrix(1 0 0 1 1044.7015 189.4634)" class="st2 st3">master</text>
<g>
	<g>
		<circle class="st4" cx="191.5" cy="395.9" r="47"/>
		<path d="M191.5,349.9c25.4,0,46,20.6,46,46s-20.6,46-46,46s-46-20.6-46-46S166.1,349.9,191.5,349.9 M191.5,347.9
			c-26.5,0-48,21.5-48,48s21.5,48,48,48s48-21.5,48-48S218,347.9,191.5,347.9L191.5,347.9z"/>
	</g>
	<circle class="st5" cx="372.8" cy="395.9" r="48"/>
	<ellipse class="st6" cx="555.8" cy="395.9" rx="48" ry="48"/>
	<circle class="st7" cx="737.9" cy="395.9" r="48"/>
	<circle class="st8" cx="919.9" cy="395.9" r="48"/>
	<text transform="matrix(1 0 0 1 171.0283 418.9006)" class="st9 st10">0</text>
	<text transform="matrix(1 0 0 1 352.3984 418.924)" class="st4 st9 st10">1</text>
	<text transform="matrix(1 0 0 1 352.3984 418.924)" class="st11 st9 st10">1</text>
	<text transform="matrix(1 0 0 1 537.424 418.924)" class="st4 st9 st10">2</text>
	<text transform="matrix(1 0 0 1 718.4241 418.924)" class="st4 st9 st10">3</text>
	<text transform="matrix(1 0 0 1 897.4242 418.9238)" class="st4 st9 st10">4</text>
	<g>
		<line class="st12" x1="253.7" y1="395.9" x2="324.6" y2="395.9"/>
		<g>
			<polygon class="st13" points="239.6,395.9 259.5,404 254.8,395.9 259.5,387.8 			"/>
		</g>
	</g>
	<g>
		<line class="st14" x1="436.7" y1="395.9" x2="507.6" y2="395.9"/>
		<g>
			<polygon class="st6" points="422.6,395.9 442.5,404 437.8,395.9 442.5,387.8 			"/>
		</g>
	</g>
	<g>
		<line class="st15" x1="618.7" y1="395.9" x2="689.6" y2="395.9"/>
		<g>
			<polygon class="st7" points="604.6,395.9 624.5,404 619.8,395.9 624.5,387.8 			"/>
		</g>
	</g>
	<g>
		<line class="st16" x1="800.7" y1="395.9" x2="871.6" y2="395.9"/>
		<g>
			<polygon class="st8" points="786.6,395.9 806.5,404 801.8,395.9 806.5,387.8 			"/>
		</g>
	</g>
	<circle class="st17" cx="1101.2" cy="395.9" r="48"/>
	<text transform="matrix(1 0 0 1 1080.7755 418.9238)" class="st4 st9 st10">5</text>
	<g>
		<line class="st18" x1="982" y1="395.9" x2="1052.9" y2="395.9"/>
		<g>
			<polygon class="st17" points="967.9,395.9 987.8,404 983.1,395.9 987.8,387.8 			"/>
		</g>
	</g>
</g>
<text transform="matrix(1 0 0 1 1044.7014 38.9998)" class="st2 st3">HEAD</text>
<g>
	<line class="st1" x1="1102.6" y1="135.5" x2="1102.8" y2="56.4"/>
	<g>
		<polygon points="1102.5,149.6 1110.7,129.7 1102.6,134.4 1094.5,129.7 		"/>
	</g>
</g>
<text transform="matrix(1 0 0 1 49.2305 82.1767)" class="st2 st19">Initial State</text>
<text transform="matrix(1 0 0 1 20.7393 645.252)" class="st2 st20">Index</text>
<text transform="matrix(1 0 0 1 15.7393 415.3895)" class="st2 st20">Repo</text>
<text transform="matrix(1 0 0 1 15.7393 529.5996)"><tspan x="0" y="0" class="st2 st20">Working</tspan><tspan x="0" y="28.8" class="st2 st20">directory</tspan></text>
<circle class="st21" cx="302.7" cy="644.3" r="26.6"/>
<ellipse class="st22" cx="489" cy="645.3" rx="26.6" ry="26.6"/>
<circle class="st23" cx="675.2" cy="645.2" r="26.6"/>
<circle class="st24" cx="861.4" cy="645.2" r="26.6"/>
<ellipse transform="matrix(0.1735 -0.9848 0.9848 0.1735 231.3246 1564.3364)" class="st25" cx="1047.7" cy="644.3" rx="26.6" ry="26.6"/>
<circle class="st21" cx="253.6" cy="538.1" r="26.6"/>
<ellipse class="st22" cx="439.8" cy="539" rx="26.6" ry="26.6"/>
<circle class="st23" cx="626" cy="539" r="26.6"/>
<circle class="st24" cx="812.3" cy="539" r="26.6"/>
<ellipse transform="matrix(0.1735 -0.9848 0.9848 0.1735 295.2669 1428.123)" class="st25" cx="998.5" cy="538.1" rx="26.6" ry="26.6"/>
</svg>
