<?xml version="1.0" encoding="utf-8"?>
<!-- Generator: Adobe Illustrator 24.0.0, SVG Export Plug-In . SVG Version: 6.00 Build 0)  -->
<svg version="1.1" baseProfile="basic" id="Layer_1"
	 xmlns="http://www.w3.org/2000/svg" xmlns:xlink="http://www.w3.org/1999/xlink" x="0px" y="0px" viewBox="0 0 1200 96"
	 xml:space="preserve">
<style type="text/css">
	.st0{fill:#FFFFFF;}
	.st1{font-family:'Ubuntu-Medium';}
	.st2{font-size:72px;}
	.st3{fill:none;stroke:#000000;stroke-width:2;stroke-miterlimit:10;}
</style>
<g>
	<circle class="st0" cx="235.8" cy="48" r="47"/>
	<path d="M235.8,2c25.4,0,46,20.6,46,46s-20.6,46-46,46s-46-20.6-46-46S210.4,2,235.8,2 M235.8,0c-26.5,0-48,21.5-48,48
		s21.5,48,48,48c26.5,0,48-21.5,48-48S262.3,0,235.8,0L235.8,0z"/>
</g>
<g>
	<circle class="st0" cx="417.1" cy="48" r="47"/>
	<path d="M417.1,2c25.4,0,46,20.6,46,46s-20.6,46-46,46s-46-20.6-46-46S391.8,2,417.1,2 M417.1,0c-26.5,0-48,21.5-48,48
		s21.5,48,48,48c26.5,0,48-21.5,48-48S443.6,0,417.1,0L417.1,0z"/>
</g>
<g>
	<circle class="st0" cx="600.2" cy="48" r="47"/>
	<path d="M600.2,2c25.4,0,46,20.6,46,46s-20.6,46-46,46s-46-20.6-46-46S574.8,2,600.2,2 M600.2,0c-26.5,0-48,21.5-48,48
		s21.5,48,48,48c26.5,0,48-21.5,48-48S626.7,0,600.2,0L600.2,0z"/>
</g>
<g>
	<circle class="st0" cx="782.2" cy="48" r="47"/>
	<path d="M782.2,2c25.4,0,46,20.6,46,46s-20.6,46-46,46s-46-20.6-46-46S756.8,2,782.2,2 M782.2,0c-26.5,0-48,21.5-48,48
		s21.5,48,48,48c26.5,0,48-21.5,48-48S808.7,0,782.2,0L782.2,0z"/>
</g>
<g>
	<circle class="st0" cx="964.2" cy="48" r="47"/>
	<path d="M964.2,2c25.4,0,46,20.6,46,46s-20.6,46-46,46s-46-20.6-46-46S938.9,2,964.2,2 M964.2,0c-26.5,0-48,21.5-48,48
		s21.5,48,48,48c26.5,0,48-21.5,48-48S990.7,0,964.2,0L964.2,0z"/>
</g>
<text transform="matrix(1 0 0 1 215.3199 70.9844)" class="st1 st2">0</text>
<text transform="matrix(1 0 0 1 396.69 71.0077)" class="st1 st2">1</text>
<text transform="matrix(1 0 0 1 581.7156 71.0077)" class="st1 st2">2</text>
<text transform="matrix(1 0 0 1 762.7156 71.0077)" class="st1 st2">3</text>
<text transform="matrix(1 0 0 1 941.7156 71.0076)" class="st1 st2">4</text>
<g>
	<line class="st3" x1="298" y1="48" x2="368.9" y2="48"/>
	<g>
		<polygon points="283.9,48 303.8,56.1 299.1,48 303.8,39.9 		"/>
	</g>
</g>
<g>
	<line class="st3" x1="481" y1="48" x2="551.9" y2="48"/>
	<g>
		<polygon points="466.9,48 486.8,56.1 482.1,48 486.8,39.9 		"/>
	</g>
</g>
<g>
	<line class="st3" x1="663" y1="48" x2="733.9" y2="48"/>
	<g>
		<polygon points="648.9,48 668.8,56.1 664.1,48 668.8,39.9 		"/>
	</g>
</g>
<g>
	<line class="st3" x1="845" y1="48" x2="915.9" y2="48"/>
	<g>
		<polygon points="830.9,48 850.8,56.1 846.1,48 850.8,39.9 		"/>
	</g>
</g>
</svg>
