<?xml version="1.0" encoding="utf-8"?>
<!-- Generator: Adobe Illustrator 24.0.0, SVG Export Plug-In . SVG Version: 6.00 Build 0)  -->
<svg version="1.1" baseProfile="basic" id="Layer_1"
	 xmlns="http://www.w3.org/2000/svg" xmlns:xlink="http://www.w3.org/1999/xlink" x="0px" y="0px" viewBox="0 0 1200 272.5"
	 xml:space="preserve">
<style type="text/css">
	.st0{fill:#FFFFFF;}
	.st1{font-family:'Ubuntu-Medium';}
	.st2{font-size:72px;}
	.st3{font-family:'Ubuntu-MediumItalic';}
	.st4{fill:none;stroke:#000000;stroke-width:0.5;stroke-miterlimit:10;}
	.st5{fill:none;stroke:#000000;stroke-width:0.5;stroke-miterlimit:10;stroke-dasharray:11.5499,11.5499;}
	.st6{fill:none;stroke:#000000;stroke-width:0.5;stroke-miterlimit:10;stroke-dasharray:11.1041,11.1041;}
	.st7{fill:none;stroke:#000000;stroke-width:0.5;stroke-miterlimit:10;stroke-dasharray:13.8,13.8;}
	.st8{fill:none;stroke:#000000;stroke-width:2;stroke-miterlimit:10;}
</style>
<g>
	<circle class="st0" cx="235.8" cy="48" r="47"/>
	<path d="M235.8,2c25.4,0,46,20.6,46,46s-20.6,46-46,46s-46-20.6-46-46S210.4,2,235.8,2 M235.8,0c-26.5,0-48,21.5-48,48
		s21.5,48,48,48s48-21.5,48-48S262.2,0,235.8,0L235.8,0z"/>
</g>
<g>
	<circle class="st0" cx="417.1" cy="48" r="47"/>
	<path d="M417.1,2c25.4,0,46,20.6,46,46s-20.6,46-46,46s-46-20.6-46-46S391.8,2,417.1,2 M417.1,0c-26.5,0-48,21.5-48,48
		s21.5,48,48,48s48-21.5,48-48S443.6,0,417.1,0L417.1,0z"/>
</g>
<g>
	<circle class="st0" cx="600.2" cy="48" r="47"/>
	<path d="M600.2,2c25.4,0,46,20.6,46,46s-20.6,46-46,46s-46-20.6-46-46S574.8,2,600.2,2 M600.2,0c-26.5,0-48,21.5-48,48
		s21.5,48,48,48s48-21.5,48-48S626.7,0,600.2,0L600.2,0z"/>
</g>
<g>
	<circle class="st0" cx="782.2" cy="48" r="47"/>
	<path d="M782.2,2c25.4,0,46,20.6,46,46s-20.6,46-46,46s-46-20.6-46-46S756.8,2,782.2,2 M782.2,0c-26.5,0-48,21.5-48,48
		s21.5,48,48,48s48-21.5,48-48S808.7,0,782.2,0L782.2,0z"/>
</g>
<g>
	<circle class="st0" cx="964.2" cy="48" r="47"/>
	<path d="M964.2,2c25.4,0,46,20.6,46,46s-20.6,46-46,46s-46-20.6-46-46S938.8,2,964.2,2 M964.2,0c-26.5,0-48,21.5-48,48
		s21.5,48,48,48s48-21.5,48-48S990.8,0,964.2,0L964.2,0z"/>
</g>
<text transform="matrix(1 0 0 1 215.3022 70.9844)" class="st1 st2">0</text>
<text transform="matrix(1 0 0 1 396.6723 71.0077)" class="st1 st2">1</text>
<text transform="matrix(1 0 0 1 581.6979 71.0077)" class="st1 st2">2</text>
<text transform="matrix(1 0 0 1 762.6979 71.0077)" class="st1 st2">3</text>
<text transform="matrix(1 0 0 1 941.6979 71.0076)" class="st1 st2">4</text>
<text transform="matrix(1 0 0 1 453.9274 257.7046)" class="st3 st2">commits</text>
<g>
	<path class="st4" d="M425.9,233.5c0,0-2.1-0.3-5.9-1.1"/>
	<path class="st5" d="M408.7,229.8c-38.1-9.3-129.2-38.4-162.4-109.4"/>
	<path class="st4" d="M244.1,115.1c-0.8-1.8-1.5-3.7-2.2-5.6"/>
</g>
<g>
	<path class="st4" d="M750.8,233.5c0,0,2.1-0.3,5.9-1.1"/>
	<path class="st5" d="M768,229.8c38.1-9.3,129.2-38.4,162.4-109.4"/>
	<path class="st4" d="M932.6,115.1c0.8-1.8,1.5-3.7,2.2-5.6"/>
</g>
<g>
	<path class="st4" d="M734.7,206.5c0,0,1.8-1.3,4.6-3.8"/>
	<path class="st6" d="M747.3,195c12.9-13.6,31.7-39,34.9-73.9"/>
	<path class="st4" d="M782.6,115.5c0.1-2,0.1-4,0.1-6"/>
</g>
<g>
	<path class="st4" d="M465.1,206.5c0,0-1.8-1.3-4.6-3.8"/>
	<path class="st6" d="M452.5,195c-12.9-13.6-31.7-39-34.9-73.9"/>
	<path class="st4" d="M417.2,115.5c-0.1-2-0.1-4-0.1-6"/>
</g>
<g>
	<line class="st4" x1="588.3" y1="190.5" x2="588.3" y2="184.5"/>
	<line class="st7" x1="588.3" y1="170.7" x2="588.3" y2="122.4"/>
	<line class="st4" x1="588.3" y1="115.5" x2="588.3" y2="109.5"/>
</g>
<line class="st8" x1="283.9" y1="48" x2="368.9" y2="48"/>
<line class="st8" x1="466.9" y1="48" x2="551.8" y2="48"/>
<line class="st8" x1="648.8" y1="48" x2="733.8" y2="48"/>
<line class="st8" x1="830.8" y1="48" x2="915.8" y2="48"/>
</svg>
