<?xml version="1.0" encoding="utf-8"?>
<!-- Generator: Adobe Illustrator 24.0.0, SVG Export Plug-In . SVG Version: 6.00 Build 0)  -->
<svg version="1.1" baseProfile="basic" id="Layer_1"
	 xmlns="http://www.w3.org/2000/svg" xmlns:xlink="http://www.w3.org/1999/xlink" x="0px" y="0px" viewBox="0 0 1092.6 523.1"
	 xml:space="preserve">
<style type="text/css">
	.st0{fill:#C7C7C7;stroke:#000000;stroke-miterlimit:10;}
	.st1{font-family:'Ubuntu-MediumItalic';}
	.st2{font-size:24px;}
	.st3{fill:none;stroke:#000000;stroke-width:2;stroke-miterlimit:10;}
	.st4{clip-path:url(#SVGID_2_);}
	.st5{fill:#E6E6E6;stroke:#000000;stroke-miterlimit:10;}
	.st6{fill:#FFFFFF;}
	.st7{fill:#CA0000;}
	.st8{fill:#0071BC;}
	.st9{fill:#F15A24;}
	.st10{fill:#FF00FF;}
	.st11{font-family:'Ubuntu-Medium';}
	.st12{font-size:72px;}
	.st13{fill:none;stroke:#FF0000;stroke-width:2;stroke-miterlimit:10;}
	.st14{fill:#FF0000;}
	.st15{fill:none;stroke:#0071BC;stroke-width:2;stroke-miterlimit:10;}
	.st16{fill:none;stroke:#F15A24;stroke-width:2;stroke-miterlimit:10;}
	.st17{fill:none;stroke:#FF00FF;stroke-width:2;stroke-miterlimit:10;}
	.st18{fill:#FF5C64;}
	.st19{fill:none;stroke:#FF5C64;stroke-width:2;stroke-miterlimit:10;}
	.st20{fill:#A800FF;}
	.st21{fill:#0ED15D;}
	.st22{fill:none;stroke:#A800FF;stroke-width:2;stroke-miterlimit:10;}
	.st23{fill:#A800FF;stroke:#A800FF;stroke-miterlimit:10;}
	.st24{fill:#0ED15D;stroke:#0ED15D;stroke-width:2;stroke-miterlimit:10;}
	.st25{fill:#0ED15D;stroke:#0ED15D;stroke-miterlimit:10;}
	.st26{fill:none;stroke:#000000;stroke-miterlimit:10;}
	.st27{fill:#4D4D4D;}
	.st28{fill:none;stroke:#4D4D4D;stroke-width:2;stroke-miterlimit:10;}
</style>
<path class="st0" d="M428.9,132.7c83.1,0,123.6,163.5,199.5,163.5c42.4,0,154.3,1.1,154.3,1.1c39.5,0,73.4,19.1,73.4,58.6l0,0
	c0,39.5-33.1,59-72.6,59l-157.8,2.6c-97.1,0-149.9-143.4-200.4-141.5"/>
<text transform="matrix(1 0 0 1 911.2419 96.1384)" class="st1 st2">master</text>
<text transform="matrix(1 0 0 1 685.8106 473.2215)" class="st1 st2">inventory_control</text>
<g>
	<line class="st3" x1="950.3" y1="63" x2="950.5" y2="45.9"/>
	<g>
		<polygon points="950.2,77.1 958.4,57.2 950.3,61.9 942.2,57.2 		"/>
	</g>
</g>
<text transform="matrix(1 0 0 1 918.1779 35.4854)" class="st1 st2">HEAD</text>
<g>
	<defs>
		<rect id="SVGID_1_" x="88.2" y="93.9" width="956" height="201"/>
	</defs>
	<clipPath id="SVGID_2_">
		<use xlink:href="#SVGID_1_"  style="overflow:visible;"/>
	</clipPath>
	<g class="st4">
		<path class="st5" d="M952,275.9H-457.6c-39.5,0-71.5-32-71.5-71.5l0,0c0-39.5,32-71.5,71.5-71.5H952c39.5,0,71.5,32,71.5,71.5l0,0
			C1023.5,243.9,991.5,275.9,952,275.9z"/>
		<g>
			<g>
				<circle class="st6" cx="-458.2" cy="201.9" r="47"/>
				<path d="M-458.2,155.9c25.4,0,46,20.6,46,46s-20.6,46-46,46c-25.4,0-46-20.6-46-46S-483.6,155.9-458.2,155.9 M-458.2,153.9
					c-26.5,0-48,21.5-48,48s21.5,48,48,48s48-21.5,48-48S-431.7,153.9-458.2,153.9L-458.2,153.9z"/>
			</g>
			<circle class="st7" cx="-276.9" cy="201.9" r="48"/>
			<ellipse class="st8" cx="-93.9" cy="201.9" rx="48" ry="48"/>
			<circle class="st9" cx="88.2" cy="201.9" r="48"/>
			<circle class="st10" cx="270.2" cy="201.9" r="48"/>
			<text transform="matrix(1 0 0 1 -478.6963 224.9133)" class="st11 st12">0</text>
			<text transform="matrix(1 0 0 1 -297.3262 224.9366)" class="st6 st11 st12">1</text>
			
				<text transform="matrix(1 0 0 1 -297.3262 224.9366)" class="st11 st12" style="fill:none;stroke:#FF0000;stroke-miterlimit:10;">1</text>
			<text transform="matrix(1 0 0 1 -112.3006 224.9366)" class="st6 st11 st12">2</text>
			<text transform="matrix(1 0 0 1 68.6994 224.9366)" class="st6 st11 st12">3</text>
			<text transform="matrix(1 0 0 1 247.6995 224.9365)" class="st6 st11 st12">4</text>
			<g>
				<line class="st13" x1="-396" y1="201.9" x2="-325.1" y2="201.9"/>
				<g>
					<polygon class="st14" points="-410.1,201.9 -390.2,210 -394.9,201.9 -390.2,193.8 					"/>
				</g>
			</g>
			<g>
				<line class="st15" x1="-213" y1="201.9" x2="-142.1" y2="201.9"/>
				<g>
					<polygon class="st8" points="-227.1,201.9 -207.2,210 -211.9,201.9 -207.2,193.8 					"/>
				</g>
			</g>
			<g>
				<line class="st16" x1="-31" y1="201.9" x2="39.9" y2="201.9"/>
				<g>
					<polygon class="st9" points="-45.1,201.9 -25.2,210 -29.9,201.9 -25.2,193.8 					"/>
				</g>
			</g>
			<g>
				<line class="st17" x1="151" y1="201.9" x2="221.9" y2="201.9"/>
				<g>
					<polygon class="st10" points="136.9,201.9 156.8,210 152.1,201.9 156.8,193.8 					"/>
				</g>
			</g>
			<circle class="st18" cx="451.5" cy="201.9" r="48"/>
			<text transform="matrix(1 0 0 1 431.0508 224.9365)" class="st6 st11 st12">5</text>
			<g>
				<line class="st19" x1="332.3" y1="201.9" x2="403.2" y2="201.9"/>
				<g>
					<polygon class="st18" points="318.2,201.9 338.1,210 333.4,201.9 338.1,193.8 					"/>
				</g>
			</g>
		</g>
	</g>
</g>
<g>
	<line class="st3" x1="950.3" y1="138.5" x2="950.5" y2="104.9"/>
	<g>
		<polygon points="950.2,152.6 958.4,132.7 950.3,137.4 942.2,132.7 		"/>
	</g>
</g>
<g>
	<line class="st3" x1="782.9" y1="418.2" x2="782.7" y2="448.6"/>
	<g>
		<polygon points="783,404.1 774.8,424 782.9,419.3 791,424 		"/>
	</g>
</g>
<circle class="st20" cx="600.5" cy="352.8" r="48"/>
<text transform="matrix(1 0 0 1 578.0113 375.8908)" class="st6 st11 st12">6</text>
<circle class="st21" cx="781.5" cy="356.1" r="48"/>
<text transform="matrix(1 0 0 1 762.0746 379.1718)" class="st6 st11 st12">7</text>
<g>
	<line class="st22" x1="495.4" y1="246.4" x2="561" y2="325.5"/>
	<g>
		<polygon class="st23" points="484.3,237.8 495,256.4 496.3,247.1 505,243.5 		"/>
	</g>
</g>
<g>
	<line class="st24" x1="662.6" y1="356.1" x2="733.5" y2="356.1"/>
	<g>
		<polygon class="st25" points="648.5,356.1 668.4,364.2 663.7,356.1 668.4,348 		"/>
	</g>
</g>
<circle cx="716.4" cy="200.6" r="48"/>
<text transform="matrix(1 0 0 1 696.9747 223.6741)" class="st6 st11 st12">8</text>
<g>
	<line class="st26" x1="512.1" y1="200.6" x2="665.2" y2="200.6"/>
	<g>
		<polygon points="498,200.6 517.9,208.7 513.2,200.6 517.9,192.5 		"/>
	</g>
</g>
<circle class="st27" cx="947.5" cy="200.6" r="48"/>
<text transform="matrix(1 0 0 1 928.0865 223.6741)" class="st6 st11 st12">9</text>
<g>
	<line class="st28" x1="778.5" y1="200.6" x2="899.5" y2="200.6"/>
	<g>
		<polygon class="st27" points="764.4,200.6 784.3,208.7 779.6,200.6 784.3,192.5 		"/>
	</g>
</g>
<g>
	<line class="st28" x1="831.7" y1="320.8" x2="917.2" y2="237.8"/>
	<g>
		<polygon class="st27" points="820.7,329.7 841.3,323.5 832.5,320.1 831.1,310.9 		"/>
	</g>
</g>
</svg>
