<?xml version="1.0" encoding="utf-8"?>
<!-- Generator: Adobe Illustrator 24.0.0, SVG Export Plug-In . SVG Version: 6.00 Build 0)  -->
<svg version="1.1" baseProfile="basic" id="Layer_1"
	 xmlns="http://www.w3.org/2000/svg" xmlns:xlink="http://www.w3.org/1999/xlink" x="0px" y="0px" viewBox="0 0 1200 96"
	 xml:space="preserve">
<style type="text/css">
	.st0{fill:#FFFFFF;}
	.st1{fill:#CA0000;}
	.st2{fill:#0071BC;}
	.st3{fill:#F15A24;}
	.st4{fill:#FF00FF;}
	.st5{font-family:'Ubuntu-Medium';}
	.st6{font-size:72px;}
	.st7{fill:#FFFFFF;stroke:#FF0000;stroke-miterlimit:10;}
	.st8{fill:none;stroke:#FF0000;stroke-width:2;stroke-miterlimit:10;}
	.st9{fill:#FF0000;}
	.st10{fill:none;stroke:#0071BC;stroke-width:2;stroke-miterlimit:10;}
	.st11{fill:none;stroke:#F15A24;stroke-width:2;stroke-miterlimit:10;}
	.st12{fill:none;stroke:#FF00FF;stroke-width:2;stroke-miterlimit:10;}
</style>
<g>
	<circle class="st0" cx="235.8" cy="48" r="47"/>
	<path d="M235.8,2c25.4,0,46,20.6,46,46s-20.6,46-46,46s-46-20.6-46-46S210.4,2,235.8,2 M235.8,0c-26.5,0-48,21.5-48,48
		s21.5,48,48,48c26.5,0,48-21.5,48-48S262.3,0,235.8,0L235.8,0z"/>
</g>
<circle class="st1" cx="417.1" cy="48" r="48"/>
<circle class="st2" cx="600.2" cy="48" r="48"/>
<circle class="st3" cx="782.2" cy="48" r="48"/>
<circle class="st4" cx="964.2" cy="48" r="48"/>
<text transform="matrix(1 0 0 1 215.32 70.9844)" class="st5 st6">0</text>
<text transform="matrix(1 0 0 1 396.69 71.0077)" class="st7 st5 st6">1</text>
<text transform="matrix(1 0 0 1 581.7156 71.0077)" class="st0 st5 st6">2</text>
<text transform="matrix(1 0 0 1 762.7156 71.0077)" class="st0 st5 st6">3</text>
<text transform="matrix(1 0 0 1 941.7156 71.0076)" class="st0 st5 st6">4</text>
<g>
	<line class="st8" x1="298" y1="48" x2="368.9" y2="48"/>
	<g>
		<polygon class="st9" points="283.9,48 303.8,56.1 299.1,48 303.8,39.9 		"/>
	</g>
</g>
<g>
	<line class="st10" x1="481" y1="48" x2="551.9" y2="48"/>
	<g>
		<polygon class="st2" points="466.9,48 486.8,56.1 482.1,48 486.8,39.9 		"/>
	</g>
</g>
<g>
	<line class="st11" x1="663" y1="48" x2="733.9" y2="48"/>
	<g>
		<polygon class="st3" points="648.9,48 668.8,56.1 664.1,48 668.8,39.9 		"/>
	</g>
</g>
<g>
	<line class="st12" x1="845" y1="48" x2="915.9" y2="48"/>
	<g>
		<polygon class="st4" points="830.9,48 850.8,56.1 846.1,48 850.8,39.9 		"/>
	</g>
</g>
</svg>
